<svg class="icon" xmlns="http://www.w3.org/2000/svg" viewBox="0 0 448 512" width="400" height="400" style="fill: #64ffda;">
    <path
        d="m448 96.3v322.9c0 28.7-26.8 60.7-59.9 60.7l-330.2 0.2c-24.8 0-57.9-28.2-57.9-60.5v-325.7c0-34 29.7-61.9 60.5-61.9 17.6 0 325.3 0 325.3 0 34.5 0 62.2 31.2 62.2 64.3zm-312.5 319.7v-213.8h-66.5v213.8zm5.2-281.5c0-21.2-17.3-38.5-38.5-38.5-21.3 0-38.5 17.3-38.5 38.5 0 21.2 17.2 38.5 38.5 38.5 21.3 0 38.5-17.2 38.5-38.5zm243.6 164.3c0-57.6-12.5-101.9-79.7-101.9-32.3 0-54 17.7-62.9 34.5h-0.9v-29.2h-63.7v213.8h66.4v-105.8c0-27.9 5.3-54.9 39.9-54.9 34 0 34.5 31.9 34.5 56.7v104h66.4z"></path>
</svg>