<svg class="icon" xmlns="http://www.w3.org/2000/svg" viewBox="0 32 448 448" width="400" height="400" style="fill: #64ffda;">
    <path
        d="m448 416c0 35.3-28.7 64-64 64h-320c-35.3 0-64-28.7-64-64v-320c0-35.3 28.7-64 64-64h320c35.3 0 64 28.7 64 64zm-135.5-251.2c-1.6 0.2-6.6 1.4-11 2.7-4.4 1.3-17 6-28 10.4-11 4.3-26.8 10.8-35 14.4-8.3 3.6-26.7 11.8-41 18.2-14.3 6.5-37.3 16.7-51 22.7-13.8 6.1-29.7 13.2-35.5 16-5.8 2.7-12 6.3-13.8 8.1-2.2 2.2-3.2 4.1-3.2 6.2 0 2 0.9 3.9 2.7 5.6 1.6 1.5 3.7 3.1 4.8 3.7 1.1 0.6 7.8 3 15 5.5 7.2 2.5 16.4 5 20.5 5.6 5.3 0.8 9 0.9 12.8 0.1 2.8-0.5 7.8-2.2 10.9-3.7 3.2-1.5 14.6-8.6 25.3-15.8 10.7-7.2 29.8-20.1 42.5-28.7 12.7-8.6 25.4-16.8 28.3-18.2 2.8-1.4 6.8-2.6 8.7-2.6 2.6 0 3.8 0.5 4.6 2.2 0.6 1.5 0.7 3.2 0.1 4.8-0.5 1.4-2.6 4.5-4.7 7-2.1 2.5-16.4 16.5-31.9 31.3-15.4 14.7-29.2 28.2-30.6 30-1.3 1.7-3 4.8-3.6 6.7-0.6 1.9-0.9 4.6-0.7 6 0.2 1.4 2 4.4 4.1 6.8 2 2.4 12.3 10.4 22.7 17.7 10.4 7.4 24.8 17.5 32 22.3 7.1 4.9 15 9.9 17.5 11.2 2.5 1.2 6.5 2.5 9 2.7 2.5 0.3 6.2 0.1 8.3-0.6 2.3-0.7 5-2.7 7.2-5.4 2-2.3 4.2-6.2 5.1-8.7 0.8-2.5 3.3-15.1 5.5-28 2.2-12.9 4.9-29.4 5.9-36.5 0.9-7.1 2.9-19.8 4.4-28 1.4-8.3 4.2-25.7 6.1-38.8 2.1-14.2 3.5-27.5 3.5-33.2 0-6.1-0.5-10.5-1.4-12.3-0.8-1.5-2.4-3.6-3.6-4.7-1.3-1.1-3.9-2.2-5.9-2.5-2-0.3-5-0.4-6.6-0.2z"></path>
</svg>